<svg width="46" height="53" viewBox="0 0 46 53" fill="none" xmlns="http://www.w3.org/2000/svg">
<path fill-rule="evenodd" clip-rule="evenodd" d="M18.7943 30.4178L17.6167 33.271C20.7811 43.0151 20.7811 43.0151 22.5476 51.5151C24.3141 43.0151 24.3141 43.0151 27.4785 33.271L26.3009 30.4178L22.5476 21.3239L18.7943 30.4178Z" fill="#D5F60C"/>
<path fill-rule="evenodd" clip-rule="evenodd" d="M18.3942 0H26.7012L45.0954 45.6516H37.3817L22.5477 10.7843L7.71369 45.6516H0L18.3942 0Z" fill="url(#paint0_linear_53_482)"/>
<mask id="mask0_53_482" style="mask-type:luminance" maskUnits="userSpaceOnUse" x="17" y="21" width="11" height="32">
<path d="M17.6167 33.5616L22.5476 21.3239L27.4785 33.5616L22.5476 52.2495L17.6167 33.5616Z" fill="white"/>
</mask>
<g mask="url(#mask0_53_482)">
<g filter="url(#filter0_f_53_482)">
<path fill-rule="evenodd" clip-rule="evenodd" d="M22.5474 39.9551L37.2685 3.26462L7.82642 3.41541L22.5474 39.9551Z" fill="white"/>
</g>
</g>
<defs>
<filter id="filter0_f_53_482" x="5.51178" y="0.949982" width="34.0714" height="41.3198" filterUnits="userSpaceOnUse" color-interpolation-filters="sRGB">
<feFlood flood-opacity="0" result="BackgroundImageFix"/>
<feBlend mode="normal" in="SourceGraphic" in2="BackgroundImageFix" result="shape"/>
<feGaussianBlur stdDeviation="1.15732" result="effect1_foregroundBlur_53_482"/>
</filter>
<linearGradient id="paint0_linear_53_482" x1="22.6219" y1="2.53774e-06" x2="22.5533" y2="49.3608" gradientUnits="userSpaceOnUse">
<stop stop-color="#069EFE"/>
<stop offset="1" stop-color="#D5F60C"/>
</linearGradient>
</defs>
</svg>
