<svg width="40" height="39" viewBox="0 0 40 39" fill="none" xmlns="http://www.w3.org/2000/svg">
<path d="M3.20488 15.0367C3.20488 10.7794 3.20488 8.65076 4.03341 7.02469C4.7622 5.59436 5.9251 4.43146 7.35543 3.70267C8.9815 2.87415 11.1101 2.87415 15.3674 2.87415H24.6494C28.9067 2.87415 31.0353 2.87415 32.6614 3.70267C34.0917 4.43146 35.2546 5.59436 35.9834 7.02469C36.812 8.65076 36.812 10.7794 36.812 15.0367V24.3187C36.812 28.576 36.812 30.7046 35.9834 32.3307C35.2546 33.761 34.0917 34.9239 32.6614 35.6527C31.0353 36.4812 28.9067 36.4812 24.6494 36.4812H15.3674C11.1101 36.4812 8.9815 36.4812 7.35543 35.6527C5.9251 34.9239 4.7622 33.761 4.03341 32.3307C3.20488 30.7046 3.20488 28.576 3.20488 24.3187V15.0367Z" fill="#00005B"/>
<path d="M10.4064 26.6339V11.5255C10.4064 11.4227 10.4485 11.364 10.5469 11.364C11.9982 11.364 13.4489 11.2759 14.9007 11.2759C17.2564 11.2759 19.8071 12.0969 20.7012 14.6088C20.9119 15.2255 21.0242 15.8569 21.0242 16.5176C21.0242 17.7803 20.7433 18.8228 20.1815 19.645C18.6122 21.9418 15.8923 21.9061 13.4541 21.9061V26.6192C13.4732 26.7588 13.3565 26.8248 13.2434 26.8248H10.5749C10.4626 26.8248 10.4064 26.7661 10.4064 26.6339ZM13.4682 14.1977V19.1311C14.4349 19.2033 15.4465 19.2111 16.3754 18.8962C17.4009 18.5947 17.9625 17.6899 17.9625 16.6057C17.991 15.6818 17.4971 14.7954 16.6563 14.462C15.7386 14.0731 14.4588 14.0498 13.4682 14.1977Z" fill="#9999FF"/>
<path d="M22.9281 15.131H25.3928C25.5287 15.1322 25.6508 15.2304 25.6867 15.3674C25.8674 15.7867 25.8896 16.2923 25.8903 16.7449C26.313 16.2304 26.8227 15.8017 27.3939 15.4803C28.0066 15.1178 28.7013 14.9341 29.4051 14.9484C29.5219 14.9309 29.6254 15.039 29.6087 15.1612V18.0215C29.6087 18.1319 29.533 18.187 29.3826 18.187C28.3393 18.1117 26.7151 18.3694 25.957 19.2271V26.6644C25.957 26.8062 25.8967 26.8771 25.7761 26.8771H23.1316C23.0017 26.8966 22.8871 26.7744 22.9054 26.6407V18.5652C22.9054 17.4831 22.9279 16.3684 22.7698 15.2965C22.7454 15.1979 22.8358 15.1061 22.9281 15.131Z" fill="#9999FF"/>
</svg>
