<svg width="104" height="42" viewBox="0 0 104 42" fill="none" xmlns="http://www.w3.org/2000/svg">
<path fill-rule="evenodd" clip-rule="evenodd" d="M22.8246 10.7285L27.2567 15.1055C27.2869 15.1353 27.317 15.1651 27.3623 15.1948L31.2215 19.0062L24.9352 25.1698L27.8145 28.0134L25.8849 29.9041L21.4829 25.5718C21.4377 25.5271 21.3774 25.4675 21.3322 25.4229L17.4729 21.6116L23.7291 15.4628L20.8799 12.649L22.8246 10.7285ZM25.6286 17.5769C25.5683 17.562 25.508 17.562 25.4628 17.5769C25.4025 17.5918 25.3573 17.6216 25.2517 17.7109L21.6789 21.2245C21.5734 21.3287 21.5432 21.3733 21.5282 21.4329C21.5131 21.4924 21.5131 21.552 21.5282 21.5967C21.5432 21.6562 21.5734 21.7009 21.6789 21.8051L22.8095 22.9217C22.9151 23.0259 22.9603 23.0557 23.0206 23.0706C23.0809 23.0855 23.1412 23.0855 23.1864 23.0706C23.2467 23.0557 23.292 23.0259 23.3975 22.9366L26.9703 19.423C27.0758 19.3188 27.106 19.2741 27.1211 19.2146C27.1361 19.155 27.1361 19.0955 27.1211 19.0508C27.106 18.9913 27.0758 18.9466 26.9854 18.8424L25.8547 17.7258C25.7341 17.6216 25.6889 17.5918 25.6286 17.5769Z" fill="#8EA5FA"/>
<path fill-rule="evenodd" clip-rule="evenodd" d="M60.6432 16.8922C62.0047 16.8922 63.164 17.4123 64.0942 18.426C65.0243 19.3996 65.5096 20.7466 65.4961 22.4138C65.4961 24.0542 65.0108 25.468 64.0537 26.4816C63.1101 27.4819 61.8969 27.9887 60.4545 27.9887C59.2143 27.9887 58.0819 27.5486 57.3405 26.7883L57.2327 26.6816L57.2192 30.9895H54.7657V30.8028L54.7927 17.0256H57.2327V18.706C58.0415 17.7991 59.3356 16.8922 60.6432 16.8922ZM76.4018 16.9322C77.8037 16.9322 78.7743 17.2389 79.5157 17.8525C80.2302 18.4393 80.6076 19.4796 80.6481 20.5866V20.7466L80.6346 27.8553H78.1407V27.5619C78.1407 27.2551 78.1407 26.9484 78.1407 26.6283C77.4263 27.6152 76.4152 28.0954 75.0807 28.0954C74.0157 28.0954 73.1125 27.7753 72.452 27.1885C71.7915 26.5883 71.4275 25.7614 71.441 24.8011C71.4545 23.0006 72.7351 21.7469 74.9998 21.3601L75.175 21.3334L78.1677 20.8666V20.6266C78.1677 20.1331 78.0194 19.5196 77.7228 19.2795C77.4128 19.0261 77.0488 18.8127 76.4152 18.8127C74.6628 18.8127 74.2988 20.0931 74.2853 20.7466V20.8L72.0746 20.8266C72.0746 19.8797 72.5194 18.6527 73.4226 17.8791C74.1371 17.2656 75.1885 16.9722 76.213 16.9455H76.4018V16.9322ZM66.7498 14.1447H69.2032V17.0522H71.4814V19.0795H69.2032L69.1898 24.5344C69.1898 25.1345 69.3246 25.5213 69.5807 25.708C69.8503 25.9081 70.4165 25.7214 70.4165 25.7214L70.6322 27.842C70.6322 27.842 69.8638 28.042 69.365 28.042C68.7179 28.042 68.1787 27.882 67.7608 27.5619C67.0868 27.0551 66.7363 26.1615 66.7363 24.9078L66.7498 19.0928L64.7008 17.0656H66.7633L66.7498 14.1447ZM52.2719 18.4793C52.9729 19.1995 53.8221 20.4799 53.8086 22.4671C53.8086 24.4543 52.9594 25.7214 52.2584 26.4416C51.2878 27.4152 49.9802 27.9887 48.6591 27.9887C48.6052 27.9887 48.5513 27.9887 48.4974 27.9887C47.0819 27.9887 45.8417 27.4819 44.7903 26.5083C43.7388 25.5213 43.2131 24.1609 43.2131 22.4538C43.2131 20.7466 43.7523 19.3862 44.8037 18.3993C45.8417 17.4257 47.0954 16.9322 48.5108 16.9322C49.9128 16.8922 51.2743 17.4523 52.2719 18.4793ZM46.5966 13.998V16.3987H41.8515L41.865 27.8553H39.3038V27.6286L39.3172 16.3854H34.4778V13.9847L46.5966 13.998ZM81.8344 14.1581H84.0451V14.2114L84.0182 27.842H81.8209V27.7753L81.8344 14.1581ZM78.1542 22.8139L75.7008 23.2273C74.501 23.4274 73.9483 23.8942 73.9348 24.6944C73.9348 25.428 74.4606 25.9214 75.2829 25.9614H75.3907H75.4042C76.9679 25.9614 78.0868 24.7478 78.1542 22.9873V22.8405V22.8139ZM48.4974 19.0928C47.6751 19.0928 46.9606 19.3996 46.381 20.0264C45.8148 20.6399 45.5182 21.4535 45.5182 22.4538C45.5182 23.4541 45.8148 24.281 46.3675 24.8811C46.9471 25.508 47.6616 25.8147 48.4839 25.8281C49.3197 25.8281 50.0476 25.5213 50.6138 24.8945C51.1934 24.2676 51.49 23.4541 51.49 22.4671C51.49 21.4668 51.1934 20.6533 50.6138 20.0397C50.0611 19.4129 49.3332 19.0928 48.4974 19.0928ZM60.0501 19.1595C59.2143 19.1595 58.5268 19.4529 57.9471 20.0798C57.3675 20.6799 57.0844 21.4535 57.0709 22.4004C57.0709 23.3474 57.354 24.2009 57.9336 24.8278C58.5268 25.428 59.2143 25.7347 60.0231 25.7347C60.8589 25.7347 61.5599 25.428 62.1126 24.8411C62.7057 24.2276 62.9753 23.374 62.9888 22.4271C62.9888 21.4802 62.6922 20.7066 62.126 20.1064C61.6003 19.4796 60.8858 19.1595 60.0501 19.1595Z" fill="#8EA5FA"/>
</svg>
