<svg width="104" height="42" viewBox="0 0 104 42" fill="none" xmlns="http://www.w3.org/2000/svg">
<path d="M61.2258 25.5535H61.1982C61.212 25.5535 61.212 25.5673 61.2258 25.5673H61.2396L61.2258 25.5535ZM61.2258 25.5673C61.1155 25.5673 60.8262 25.6224 60.523 25.6224C59.5721 25.6224 59.2414 25.1814 59.2414 24.6026V20.7716H61.1844C61.2947 20.7716 61.3774 20.6752 61.3774 20.5374V18.4565C61.3774 18.3462 61.2809 18.2498 61.1844 18.2498H59.2414V15.659C59.2414 15.5626 59.1725 15.5074 59.0622 15.5074H56.4164C56.3061 15.5074 56.251 15.5764 56.251 15.659V18.3187C56.251 18.3187 54.9143 18.6494 54.8316 18.6632C54.7351 18.6908 54.68 18.7734 54.68 18.8699V20.5374C54.68 20.6752 54.7765 20.7716 54.8867 20.7716H56.2372V24.7956C56.2372 27.7859 58.3181 28.0891 59.7375 28.0891C60.3852 28.0891 61.1707 27.8824 61.2947 27.8135C61.3636 27.7859 61.4049 27.7033 61.4049 27.6206V25.7878C61.4049 25.6775 61.336 25.5948 61.2258 25.5673ZM90.2477 22.8801C90.2477 20.6614 89.3519 20.372 88.4149 20.4685C87.6845 20.5098 87.0919 20.8819 87.0919 20.8819V25.1952C87.0919 25.1952 87.6845 25.6086 88.5802 25.6362C89.8343 25.6637 90.2477 25.209 90.2477 22.8801ZM93.2243 22.6871C93.2243 26.8902 91.86 28.0891 89.4898 28.0891C87.4778 28.0891 86.4029 27.0694 86.4029 27.0694C86.4029 27.0694 86.3616 27.6344 86.2927 27.7033C86.2513 27.7722 86.1962 27.7997 86.1135 27.7997H84.3083C84.1842 27.7997 84.074 27.7033 84.074 27.593L84.1015 13.9916C84.1015 13.8813 84.198 13.7849 84.3083 13.7849H86.9128C87.023 13.7849 87.1195 13.8813 87.1195 13.9916V18.6081C87.1195 18.6081 88.1255 17.9604 89.6 17.9604L89.5862 17.9328C91.047 17.9328 93.2243 18.4841 93.2243 22.6871ZM82.5443 18.2636H79.9674C79.8296 18.2636 79.7607 18.36 79.7607 18.4978V25.1539C79.7607 25.1539 79.0854 25.6224 78.1621 25.6224C77.2526 25.6224 76.977 25.209 76.977 24.2857V18.4703C76.977 18.36 76.8805 18.2636 76.7703 18.2636H74.152C74.0417 18.2636 73.9453 18.36 73.9453 18.4703V24.7404C73.9453 27.4276 75.4473 28.1029 77.5144 28.1029C79.2232 28.1029 80.6013 27.1658 80.6013 27.1658C80.6013 27.1658 80.6702 27.6481 80.6977 27.717C80.7253 27.7722 80.808 27.8273 80.8907 27.8273H82.5306C82.6684 27.8273 82.7373 27.7308 82.7373 27.6206L82.7648 18.4703C82.7786 18.36 82.6684 18.2636 82.5443 18.2636ZM53.5224 18.2498H50.9179C50.8077 18.2498 50.7112 18.36 50.7112 18.4978V27.4828C50.7112 27.7308 50.8766 27.8135 51.0833 27.8135H53.4398C53.6878 27.8135 53.7429 27.7033 53.7429 27.4828V18.4565C53.7292 18.3462 53.6327 18.2498 53.5224 18.2498ZM52.2271 14.1018C51.29 14.1018 50.5321 14.846 50.5321 15.7968C50.5321 16.7339 51.2762 17.4919 52.2271 17.4919C53.1504 17.4919 53.8945 16.7477 53.8945 15.7968C53.8945 14.8598 53.1504 14.1018 52.2271 14.1018ZM72.4294 13.7987H69.8386C69.7284 13.7987 69.6319 13.8951 69.6319 14.0054V19.0077H65.5805V14.0054C65.5805 13.8951 65.484 13.7987 65.3737 13.7987H62.7692C62.659 13.7987 62.5625 13.8951 62.5625 14.0054V27.6068C62.5625 27.717 62.6727 27.8135 62.7692 27.8135H65.3737C65.484 27.8135 65.5805 27.717 65.5805 27.6068V21.7914H69.6319L69.6044 27.6068C69.6044 27.717 69.7008 27.8135 69.8111 27.8135H72.4156C72.5259 27.8135 72.6223 27.717 72.6223 27.6068V14.0054C72.6361 13.8951 72.5396 13.7987 72.4294 13.7987ZM49.3194 19.8208V26.8489C49.3194 26.8902 49.3056 26.9867 49.2505 27.0005C49.2505 27.0005 47.7208 28.0891 45.199 28.0891C42.1535 28.0891 38.5292 27.1383 38.5292 20.8405C38.5292 14.5428 41.6849 13.2474 44.7718 13.2612C47.4452 13.2612 48.5201 13.8676 48.6855 13.9778C48.7268 14.0467 48.7544 14.0881 48.7544 14.1432L48.2583 16.3343C48.2583 16.4445 48.148 16.5823 48.0102 16.541C47.5692 16.4032 46.9078 16.1414 45.3506 16.1414C43.5453 16.1414 41.616 16.6512 41.616 20.7165C41.616 24.768 43.4488 25.2503 44.7718 25.2503C45.9018 25.2503 46.3014 25.1125 46.3014 25.1125V22.3013H44.4962C44.3584 22.3013 44.2619 22.2048 44.2619 22.0946V19.8345C44.2619 19.7243 44.3584 19.6278 44.4962 19.6278H49.0851C49.2229 19.6141 49.3194 19.7105 49.3194 19.8208Z" fill="#8EA5FA"/>
<path fill-rule="evenodd" clip-rule="evenodd" d="M21.1586 10.5115C15.357 10.5115 10.6578 15.2107 10.6578 21.0123C10.6578 25.6564 13.662 29.5839 17.8375 30.9757C18.3611 31.0584 18.5678 30.7552 18.5678 30.4796C18.5678 30.2315 18.5541 29.4047 18.5541 28.5228C15.922 29.0051 15.2329 27.8751 15.0262 27.2963C14.9022 26.9931 14.3923 26.056 13.9513 25.808C13.5793 25.615 13.0556 25.1189 13.9376 25.1052C14.7644 25.0914 15.357 25.8631 15.5499 26.1801C16.5008 27.7648 18.0028 27.3238 18.6092 27.0482C18.7056 26.373 18.9813 25.9044 19.2844 25.6426C16.9555 25.3808 14.5026 24.4713 14.5026 20.4611C14.5026 19.3173 14.916 18.3665 15.5775 17.6361C15.4672 17.3743 15.1089 16.2994 15.6877 14.8524C15.6877 14.8524 16.5697 14.5768 18.5816 15.9273C19.4222 15.693 20.318 15.569 21.1999 15.569C22.0957 15.569 22.9776 15.693 23.8182 15.9273C25.8302 14.563 26.6984 14.8524 26.6984 14.8524C27.2772 16.2994 26.9051 17.3743 26.8086 17.6361C27.4839 18.3665 27.8835 19.3035 27.8835 20.4611C27.8835 24.485 25.4306 25.3808 23.0879 25.6426C23.4737 25.9733 23.8045 26.5935 23.8045 27.5857C23.8045 28.9913 23.7907 30.1213 23.7907 30.4658C23.7907 30.7414 23.9836 31.0722 24.5073 30.9619C28.7793 29.5149 31.6594 25.5048 31.6594 20.9986C31.6594 15.2107 26.9602 10.5115 21.1586 10.5115Z" fill="#8EA5FA"/>
</svg>
