<svg width="499" height="171" viewBox="0 0 499 171" fill="none" xmlns="http://www.w3.org/2000/svg">
<path d="M491.128 56.2485C491.555 59.8136 490.426 63.5587 487.73 67.4626C485.029 71.3734 480.791 75.3894 475.116 79.4428C463.767 87.549 446.848 95.6829 425.572 103.372C383.036 118.744 323.298 132.262 256.449 140.263C189.6 148.264 128.36 149.225 83.3975 144.325C60.908 141.875 42.5472 137.963 29.6059 132.764C23.1347 130.165 18.0681 127.262 14.5208 124.099C10.9799 120.942 8.99891 117.569 8.57221 114.004C8.14552 110.439 9.27453 106.694 11.9703 102.79C14.6709 98.8791 18.9096 94.8631 24.5844 90.8097C35.9333 82.7035 52.8525 74.5696 74.1284 66.8807C116.665 51.5086 176.402 37.9904 243.251 29.9895C310.1 21.9886 371.34 21.0273 416.303 25.927C438.792 28.3777 457.153 32.2891 470.095 37.4881C476.566 40.0877 481.632 42.99 485.18 46.153C488.721 49.3104 490.702 52.6834 491.128 56.2485Z" stroke="url(#paint0_linear_118_152)" stroke-width="2"/>
<path d="M332 7L335.511 16.4888L345 20L335.511 23.5112L332 33L328.489 23.5112L319 20L328.489 16.4888L332 7Z" fill="#D5F60C"/>
<path d="M138 136L141.511 145.489L151 149L141.511 152.511L138 162L134.489 152.511L125 149L134.489 145.489L138 136Z" fill="#D5F60C"/>
<defs>
<linearGradient id="paint0_linear_118_152" x1="502.083" y1="59.4301" x2="-28.2735" y2="109.32" gradientUnits="userSpaceOnUse">
<stop stop-color="#4269F6"/>
<stop offset="1" stop-color="#D5F60C" stop-opacity="0"/>
</linearGradient>
</defs>
</svg>
