<svg width="16" height="16" viewBox="0 0 16 16" fill="none" xmlns="http://www.w3.org/2000/svg">
<circle cx="7.79723" cy="7.70283" r="7.37327" fill="#4269F6"/>
<g clip-path="url(#clip0_53_852)">
<path d="M11.2534 10.391C11.3513 10.3911 11.4455 10.4286 11.5166 10.4958C11.5878 10.563 11.6306 10.6548 11.6364 10.7525C11.6421 10.8502 11.6103 10.9465 11.5475 11.0215C11.4847 11.0966 11.3956 11.1448 11.2984 11.1564L11.2534 11.1591H4.341C4.24312 11.159 4.14898 11.1215 4.07781 11.0543C4.00663 10.9871 3.9638 10.8953 3.95807 10.7975C3.95233 10.6998 3.98412 10.6036 4.04694 10.5286C4.10977 10.4535 4.19888 10.4053 4.29607 10.3937L4.341 10.391H11.2534ZM10.4854 4.63065C10.6792 4.63058 10.8658 4.70377 11.0079 4.83552C11.15 4.96728 11.237 5.14787 11.2515 5.34109L11.2534 5.39869V9.23894C11.2535 9.43271 11.1803 9.61934 11.0486 9.76142C10.9168 9.90351 10.7362 9.99054 10.543 10.0051L10.4854 10.007H5.10905C4.91528 10.0071 4.72865 9.93387 4.58657 9.80211C4.44449 9.67036 4.35746 9.48977 4.34292 9.29654L4.341 9.23894V5.39869C4.34094 5.20493 4.41412 5.01829 4.54588 4.87621C4.67764 4.73413 4.85823 4.6471 5.05145 4.63257L5.10905 4.63065H10.4854Z" fill="white"/>
</g>
<defs>
<clipPath id="clip0_53_852">
<rect width="9.21659" height="9.21659" fill="white" transform="translate(3.18893 3.09454)"/>
</clipPath>
</defs>
</svg>
