<svg width="79" height="19" viewBox="0 0 79 19" fill="none" xmlns="http://www.w3.org/2000/svg">
<path fill-rule="evenodd" clip-rule="evenodd" d="M66.6339 14.2172C65.6822 14.2172 65.6435 13.8335 65.6435 12.8305C65.6435 11.1992 67.1968 7.37111 68.7934 6.80163C70.0906 6.33894 70.3319 7.55186 70.3319 8.53832C70.3319 9.81248 69.6293 11.222 69.1402 12.0349C68.7553 12.675 67.4569 14.2172 66.6339 14.2172ZM52.9654 14.3492C51.8411 14.3492 51.9088 13.304 51.9088 12.4342C51.9088 10.5922 53.9585 6.9536 55.5406 6.9536H55.8047C56.3862 6.9536 56.6631 7.79646 56.6631 8.40624C56.6631 9.76345 56.0443 11.2283 55.5385 12.1019C55.1318 12.8046 53.9885 14.3492 52.9654 14.3492ZM48.2772 12.038C48.2772 13.4985 48.4771 14.4921 49.58 15.5555C51.7282 17.6272 55.7206 16.4703 57.6046 14.564C58.355 13.8047 58.6109 13.6606 59.2011 12.6609C59.3203 12.459 59.3864 12.2709 59.5763 12.1776C59.7349 12.0998 60.0555 12.0115 60.2572 11.934L61.5497 11.4438L59.7888 14.8995C59.6284 15.2202 59.5096 15.4601 59.3493 15.7808C59.0644 16.3511 58.0498 18.0508 58.0498 18.5093C58.0498 18.7682 58.3764 18.8394 58.6441 18.8394H61.3513C62.339 18.8394 62.4337 18.1932 62.9802 17.1005L64.1247 14.8114C64.7019 14.8114 64.7156 15.1743 65.13 15.5888C66.657 17.1162 68.7689 16.7278 70.4358 15.708C73.0813 14.0894 75.6954 8.89337 73.7544 5.90782C72.2847 3.64738 69.6387 5.43483 68.8129 5.43483C68.3809 5.43483 68.4525 5.10474 68.0205 5.10474C64.3599 5.10474 64.9627 4.7783 64.0816 6.51428L63.2002 8.20822C62.5934 9.42184 62.202 10.3212 60.1627 10.3212C60.2529 9.23812 60.5099 8.56728 59.9221 7.26014C59.7253 6.82239 59.3957 6.2702 59.0495 5.95371C56.7877 3.88536 53.5087 4.8289 51.276 6.58512L50.296 7.52011C50.1353 7.72703 50.0313 7.80362 49.8705 8.01892C49.0803 9.07726 48.2772 10.5728 48.2772 12.038Z" fill="white"/>
<path fill-rule="evenodd" clip-rule="evenodd" d="M26.2225 14.2171C25.8971 14.2171 25.6792 14.2222 25.4955 13.8876C24.7662 12.559 26.3469 9.1397 26.882 8.3394C28.5323 5.87117 30.0523 6.2817 30.0523 8.34028C30.0523 10.7002 27.865 14.2171 26.2225 14.2171ZM28.5335 5.43482C27.9909 5.43482 28.2261 5.0386 27.3451 5.0386H25.5621C24.3539 5.0386 24.3864 5.33484 23.7797 6.55788L22.2835 9.48568C21.9682 10.1068 21.0791 11.9817 20.6921 12.3184C19.7966 13.0976 17.7952 14.3675 16.5818 14.0849C16.56 13.8227 16.5157 13.9258 16.5157 13.7548C16.5157 13.0813 17.0228 11.989 17.2636 11.4652L18.3368 9.43491C18.6008 8.99402 20.4116 5.54718 20.4116 5.30274C20.4116 5.08936 20.1719 4.97264 19.9494 4.97264H17.1101C16.5795 4.97264 16.1695 5.31722 15.9643 5.67594C15.7373 6.07303 15.5575 6.49298 15.3491 6.90962C15.1323 7.34318 14.9393 7.72736 14.7333 8.14278C14.6214 8.36854 14.5126 8.52277 14.4018 8.73563C14.295 8.94063 14.2076 9.12662 14.0945 9.35273C13.1217 11.2986 9.7715 16.5282 14.2046 16.5282C16.0193 16.5282 17.9889 15.4315 19.4087 14.4689C19.6308 14.3183 19.8083 14.1577 20.0154 14.0191C19.9578 14.2658 18.9685 16.0447 18.8267 16.3302C18.6224 16.7412 18.4163 17.0802 18.2103 17.4965C17.8865 18.1506 17.6982 18.2818 17.9024 18.7073C18.5385 18.8555 20.5526 18.7733 21.3361 18.7733C21.8182 18.7733 22.0455 18.3495 22.216 18.0025C22.3254 17.7797 22.3915 17.7038 22.5028 17.497C22.7882 16.967 23.6681 14.9524 23.9772 14.7453C24.3597 14.8473 24.7784 15.5641 25.2968 15.935C27.0835 17.2137 29.5069 16.3141 30.7615 15.1905C31.3492 14.6643 31.5006 14.5595 31.9861 13.9059C32.3531 13.412 32.6804 12.9266 32.9581 12.3686C33.8095 10.6571 34.6985 7.94004 33.4737 6.0411C31.8654 3.54722 29.5474 5.43482 28.5335 5.43482Z" fill="white"/>
<path fill-rule="evenodd" clip-rule="evenodd" d="M36.8538 6.29337C37.2359 6.86406 37.687 6.41149 38.8795 5.74396C40.515 4.82851 42.5788 4.11423 44.6454 4.11423C45.3723 4.11423 45.8416 4.18035 46.5604 4.18035C46.4242 4.36617 46.3879 4.30719 46.126 4.40629C45.9451 4.47468 45.8362 4.534 45.6876 4.62822C45.4068 4.806 45.1886 4.98815 44.959 5.2202C44.2531 5.93326 43.7996 6.7292 43.347 7.6361L41.1468 12.1052C40.693 12.977 39.717 14.8461 39.1494 15.4564C38.9317 15.6904 38.7188 15.8903 38.4896 16.1171C38.0623 16.5399 37.9105 16.3788 37.9105 16.9247C38.3615 17.0298 38.294 16.9909 38.835 16.9909C40.7193 16.9909 42.0197 16.3502 43.0818 15.493C44.5139 14.3373 45.5689 12.041 46.4727 10.2338C47.0074 9.16428 47.9583 7.35345 48.3905 6.34082C48.5864 5.88162 49.2581 4.70499 49.334 4.3789C50.5075 4.3789 52.2527 3.66968 53.175 2.93743L54.1927 1.8421C54.3907 1.57062 54.4844 1.52212 54.4844 1.07739C53.9302 0.948284 53.0961 1.73776 51.0508 1.73776C48.5681 1.73776 48.179 1.54724 45.8889 1.22081C43.7541 0.916703 41.6615 0.909728 39.759 1.86949C38.629 2.43949 38.9272 2.55743 38.1363 3.87852L37.4925 5.08359C37.399 5.25771 37.3653 5.28301 37.2718 5.45713C37.1601 5.66423 36.8951 6.11558 36.8538 6.29337Z" fill="white"/>
<path fill-rule="evenodd" clip-rule="evenodd" d="M0.470139 6.35933C0.842982 6.609 0.806344 6.71613 1.68655 6.18905C1.96169 6.02435 2.21624 5.90048 2.49592 5.7438C4.13507 4.82626 6.18946 4.11407 8.26182 4.11407C8.98867 4.11407 9.45817 4.1802 10.1766 4.1802C9.99798 4.42411 8.52056 4.60503 7.44705 6.73323C6.36376 8.88078 3.8212 14.1578 2.85742 15.35L1.85596 16.3295C1.21443 16.8059 1.67329 16.9904 1.79036 16.9904C3.99288 16.9904 5.1887 16.71 6.69752 15.4925C7.80541 14.5985 8.46212 13.4195 9.11987 12.1041C9.53651 11.2709 12.8413 4.84336 12.9497 4.37839C13.9736 4.37839 15.4036 3.80962 16.0744 3.40921C16.7038 3.03357 18.1002 1.87648 18.1002 1.20879C18.1002 0.770341 17.4212 1.26008 16.583 1.47451C14.232 2.07556 11.7603 1.5415 9.50475 1.22013C7.30415 0.906603 5.25883 0.921084 3.33093 1.89097C3.04899 2.03281 2.78746 2.11551 2.59868 2.34721L1.52708 4.31314C1.27305 4.80463 0.57011 5.92996 0.470139 6.35933Z" fill="white"/>
<path fill-rule="evenodd" clip-rule="evenodd" d="M18.2988 2.39743V2.79365C18.2988 3.9141 19.9854 4.91993 21.187 3.83298C22.201 2.91561 21.7359 0.878662 19.9496 0.878662C19.0178 0.878662 18.2988 1.65977 18.2988 2.39743Z" fill="white"/>
<path fill-rule="evenodd" clip-rule="evenodd" d="M75.9446 4.31222H76.4068C76.4068 3.54508 76.4729 2.89832 76.4729 2.06714L76.8778 3.18078C76.983 3.49727 77.1264 4.02295 77.2651 4.31205C77.7676 4.31205 77.6075 4.19341 77.9449 3.34095C78.0346 3.11448 78.085 2.94176 78.1649 2.70256C78.2143 2.55496 78.2199 2.53855 78.2622 2.40369C78.2708 2.3763 78.3024 2.27126 78.309 2.25242L78.3666 2.1118C78.3708 2.10185 78.379 2.0811 78.3879 2.06714C78.3879 2.8772 78.4594 3.5852 78.5199 4.31222H78.9819C78.9474 3.89698 78.8554 3.29785 78.8495 2.85993C78.8445 2.49983 78.7963 2.42271 78.7858 2.13117C78.7652 1.55454 78.9146 1.53884 78.3216 1.53884C78.0949 1.53884 78.0299 1.95984 77.851 2.45481C77.7612 2.70308 77.5359 3.28633 77.5293 3.58573H77.3972C77.3864 3.10401 77.0446 2.44993 76.8944 1.97554C76.7395 1.48598 76.8745 1.53884 76.1426 1.53884C76.1426 2.60154 75.9446 3.56113 75.9446 4.31222Z" fill="white"/>
<path fill-rule="evenodd" clip-rule="evenodd" d="M73.7654 1.9351H74.6238V4.31226C75.2577 4.31226 75.086 4.54954 75.086 1.9351H75.8785V1.53888H73.7654V1.9351Z" fill="white"/>
</svg>
