<svg width="1442" height="468" viewBox="0 0 1442 468" fill="none" xmlns="http://www.w3.org/2000/svg">
<path d="M1 317.98C17.9128 317.98 146.45 463.429 316.544 463.429C552.839 463.429 680.065 -66.4302 1012.87 81.6844C1276.7 199.107 1392.68 211.671 1441 130.007" stroke="#D3D5D6"/>
<path d="M1 192.342C15.9799 203.456 146.45 463.429 316.544 463.429C552.839 463.429 718.723 -8.44373 1051.52 139.671C1315.36 257.094 1356.92 238.248 1441 178.329" stroke="#D3D5D6"/>
<path d="M1 395.295C17.9128 395.295 146.45 467.295 316.544 467.295C552.839 467.295 682.825 -152.909 993.537 37.2279C1220.17 175.912 1354.02 231 1441 168.664" stroke="#D3D5D6"/>
</svg>
