<svg width="19" height="19" viewBox="0 0 19 19" fill="none" xmlns="http://www.w3.org/2000/svg">
<path fill-rule="evenodd" clip-rule="evenodd" d="M9.7381 16.5877C13.7379 16.5877 16.9804 13.3452 16.9804 9.34537C16.9804 5.34553 13.7379 2.10303 9.7381 2.10303C5.73827 2.10303 2.49576 5.34553 2.49576 9.34537C2.49576 13.3452 5.73827 16.5877 9.7381 16.5877ZM13.0941 8.17492C13.4477 7.82138 13.4477 7.24818 13.0941 6.89464C12.7406 6.54111 12.1674 6.54111 11.8138 6.89464L8.83281 9.87568L7.66236 8.70523C7.30882 8.35169 6.73562 8.35169 6.38209 8.70523C6.02855 9.05877 6.02855 9.63197 6.38209 9.98551L8.19267 11.7961C8.54621 12.1496 9.11941 12.1496 9.47295 11.7961L13.0941 8.17492Z" fill="#71717A"/>
</svg>
