<svg width="100" height="32" viewBox="0 0 100 32" fill="none" xmlns="http://www.w3.org/2000/svg">
<path d="M54.6866 19.6291L54.5224 19.4675L54.6866 19.6291ZM66.3668 31.035L66.4139 31.2606L66.3668 31.035ZM99.3804 0.411098C99.3499 0.287555 99.225 0.212137 99.1014 0.242648L97.0882 0.73984C96.9646 0.77035 96.8892 0.895235 96.9197 1.01878C96.9502 1.14232 97.0751 1.21774 97.1987 1.18723L98.9882 0.74528L99.4302 2.53483C99.4607 2.65838 99.5856 2.73379 99.7091 2.70328C99.8327 2.67277 99.9081 2.54789 99.8776 2.42435L99.3804 0.411098ZM0.889508 14.3497C6.49916 17.4152 16.3237 22.4752 26.5654 24.9256C36.7982 27.3738 47.5238 27.2335 54.8508 19.7908L54.5224 19.4675C47.3709 26.7319 36.86 26.9148 26.6726 24.4774C16.4941 22.0422 6.71469 17.0078 1.11049 13.9453L0.889508 14.3497ZM54.8508 19.7908C59.3999 15.17 60.8124 11.1578 60.2384 7.95169C59.6643 4.74533 57.1197 2.43437 53.9579 1.18016C50.7946 -0.0746585 46.9702 -0.292013 43.7527 0.72032C40.5285 1.73478 37.8949 3.99347 37.1833 7.69094L37.6358 7.77803C38.3082 4.2842 40.7885 2.13606 43.891 1.1599C47.0003 0.181619 50.7158 0.389846 53.788 1.60852C56.8617 2.82781 59.2486 5.03824 59.7847 8.03291C60.321 11.0278 59.0226 14.8963 54.5224 19.4675L54.8508 19.7908ZM37.1833 7.69094C35.7803 14.9808 38.9679 21.7422 44.5576 26.2403C50.1466 30.7378 58.148 32.985 66.4139 31.2606L66.3198 30.8095C58.1907 32.5053 50.3295 30.2935 44.8465 25.8813C39.3644 21.4698 36.2708 14.8707 37.6358 7.77803L37.1833 7.69094ZM66.4139 31.2606C73.0448 29.8773 79.9174 24.4517 85.7977 18.2771C91.686 12.0941 96.6143 5.12205 99.3539 0.585454L98.9594 0.347229C96.2341 4.86011 91.3255 11.8043 85.464 17.9593C79.5946 24.1225 72.8048 29.4566 66.3198 30.8095L66.4139 31.2606Z" fill="#8EA5FA"/>
</svg>
